<svg xmlns="http://www.w3.org/2000/svg" version="1.1" xmlns:xlink="http://www.w3.org/1999/xlink" xmlns:svgjs="http://svgjs.com/svgjs" width="1000" height="1000"><rect width="1000" height="1000" rx="200" ry="200" fill="#ffffff"></rect><g transform="matrix(1.9913518434228494,0,0,1.9913518434228494,170.87436852921775,149.37544894371672)"><svg xmlns="http://www.w3.org/2000/svg" version="1.1" xmlns:xlink="http://www.w3.org/1999/xlink" xmlns:svgjs="http://svgjs.com/svgjs" width="330.55" height="351.52"><svg xmlns="http://www.w3.org/2000/svg" xmlns:xlink="http://www.w3.org/1999/xlink" version="1.1" x="0px" y="0px" viewBox="0 0 330.55 351.52" style="enable-background:new 0 0 330.55 351.52;" xml:space="preserve">
<style type="text/css">
	.st0{display:none;fill:#FFFFFF;}
	.st1{fill:#FFFFFF;stroke:#FFFFFF;stroke-miterlimit:10;}
</style>
<g id="Layer_1">
	<g>
		<path class="st0" d="M-58.29,399.34c0-151.5,0-303,0-454.5c151.33,0,302.67,0,454,0c0,151.5,0,303,0,454.5    C244.37,399.34,93.04,399.34-58.29,399.34z M8.79,245.91c1.01-0.39,1.78-0.65,2.53-0.96c57.62-23.9,115.24-47.78,172.82-71.76    c2.3-0.96,3.38-0.59,4.87,1.28c46.64,58.9,93.34,117.76,140.01,176.63c0.38,0.48,0.55,1.12,0.82,1.69    c0.24-0.21,0.48-0.42,0.71-0.63c-0.73-18.79-1.46-37.58-2.19-56.37c-0.76-19.8-1.5-39.6-2.27-59.39    c-0.97-24.87-1.97-49.74-2.91-74.61c-0.06-1.6-0.55-2.5-2.03-3.26c-23.1-11.84-46.17-23.74-69.24-35.63    c-3.59-1.85-7.17-3.72-11.14-5.78c25.54-13.41,50.65-26.58,76.05-39.92c-14.9-9.02-29.34-17.79-43.82-26.5    c-4.52-2.72-2.83-2.84-6.89,0.37c-50.89,40.11-101.75,80.27-152.68,120.34c-1.36,1.07-3.44,1.66-5.21,1.71    c-11.65,0.31-23.31,0.41-34.97,0.57c-16.57,0.22-33.14,0.44-49.72,0.63c-4.88,0.06-9.77,0.01-14.75,0.01    C8.79,198.39,8.79,221.95,8.79,245.91z M0,0c43.53,47.49,86.71,94.59,129.85,141.66c0.49-0.32,0.71-0.44,0.91-0.6    c21.58-17.02,43.16-34.03,64.69-51.11c0.73-0.58,1.15-1.95,1.16-2.95c0.06-28.24,0.05-56.48,0.04-84.72c0-0.73-0.06-1.45-0.1-2.28    C131.12,0,65.85,0,0,0z"></path>
		<path d="M8.79,245.91c0-23.96,0-47.52,0-71.59c4.98,0,9.87,0.05,14.75-0.01c16.57-0.19,33.14-0.41,49.72-0.63    c11.66-0.16,23.32-0.26,34.97-0.57c1.77-0.05,3.85-0.64,5.21-1.71c50.93-40.06,101.79-80.22,152.68-120.34    c4.06-3.2,2.37-3.09,6.89-0.37c14.48,8.71,28.92,17.48,43.82,26.5c-25.4,13.33-50.51,26.51-76.05,39.92    c3.97,2.06,7.55,3.93,11.14,5.78c23.07,11.89,46.14,23.79,69.24,35.63c1.48,0.76,1.97,1.66,2.03,3.26    c0.94,24.87,1.94,49.74,2.91,74.61c0.77,19.8,1.51,39.6,2.27,59.39c0.72,18.79,1.46,37.58,2.19,56.37    c-0.24,0.21-0.48,0.42-0.71,0.63c-0.27-0.57-0.44-1.21-0.82-1.69C282.34,292.22,235.64,233.36,189,174.46    c-1.48-1.87-2.56-2.24-4.87-1.28c-57.58,23.98-115.2,47.87-172.82,71.76C10.57,245.26,9.8,245.52,8.79,245.91z"></path>
		<path d="M0,0c65.85,0,131.12,0,196.56,0c0.04,0.83,0.1,1.56,0.1,2.28c0,28.24,0.02,56.48-0.04,84.72c0,1-0.43,2.37-1.16,2.95    c-21.52,17.09-43.11,34.09-64.69,51.11c-0.19,0.15-0.42,0.27-0.91,0.6C86.71,94.59,43.53,47.49,0,0z"></path>
	</g>
</g>
<g id="Layer_2">
</g>
</svg></svg></g></svg>