<svg id="Layer_1" data-name="Layer 1" xmlns="http://www.w3.org/2000/svg" viewBox="0 0 2000 1000"><defs><style>.cls-1{fill:#e01e39;}</style></defs><path class="cls-1" d="M497.08,214.24C315,214.24,203.35,356.45,203.35,500c0,172.81,140.91,285.76,295.06,285.76,102.36,0,199.39-45.18,281.77-118.3v214c-86.4,51.85-204.68,83.75-296.39,83.75C220.63,965.21,0,751.2,0,500,0,234.15,221.92,34.79,485.12,34.79c101,0,219.31,30.57,296.39,69.13v210c-97-63.8-195.36-99.69-284.43-99.69Zm842.57,751c-264.49,0-487.78-206-487.78-465.18,0-261.88,221.91-465.24,499.72-465.24,101,0,226,26.58,303,62.47V305.92c-87.71-50.49-200.69-91.68-299.05-91.68-182.1,0-300.41,142.16-300.41,285.73,0,168.8,139.58,291.09,303.07,291.09,34.54,0,67.77-2.66,110.32-18.61V605H1319.71V428.21H1660V898.74c-97.06,43.86-206,66.47-320.36,66.47Zm468.95-18.62V53.41H2000V946.59Z"/></svg>