<svg id="Layer_1" data-name="Layer 1" xmlns="http://www.w3.org/2000/svg" xmlns:xlink="http://www.w3.org/1999/xlink" viewBox="0 0 2000 1000"><defs><style>.cls-1{fill:url(#linear-gradient);}.cls-2{fill:#29ade3;}</style><linearGradient id="linear-gradient" x1="-25.07" y1="514.96" x2="-25.07" y2="514.15" gradientTransform="translate(63654.02 -197000.79) scale(2499.37 383.42)" gradientUnits="userSpaceOnUse"><stop offset="0" stop-color="#29ade3" stop-opacity="0"/><stop offset="1" stop-color="#29ade3"/></linearGradient></defs><path class="cls-1" d="M2000,441.23c-260.57-190.32-612.54-306.81-1000-306.81S260.57,250.91,0,441.23Z"/><path class="cls-2" d="M854.12,495.71c-18.63,0-28.31,15.05-30.82,33.69-2.87,20.43-13.62,91.4-15.77,109.32-1.44,10.75-2.15,22.22-12.55,26.88s-23.29-2.51-34.05-11.83S589.25,507.53,589.25,507.53a47.74,47.74,0,0,0-31.9-11.82c-24.37,0-47.67,15.05-47.67,52V776c0,17.92,12.55,29,27.6,29,16.49,0,27.24-11.11,29.75-26.88,0,0,17.56-109,19.71-120.79,2.51-14,4.66-25.09,18.28-29.39,12.19-3.94,24,3.22,41.22,18.64,17.21,15,162,145.87,162,145.87,11.11,9.33,19,13.27,34.77,13.27,14.33,0,40.14-5.74,40.14-49.47V528.69c0-21.51-12.91-33-29-33Zm1036.2,243c-126.16,27.24-270.6-1.79-270.6-91,0-67.39,62.72-95,111.82-98.93,51.62-4.3,92.12,6.81,112.91,28.31,12.9,13.63,9.32,31.9-16.13,33.34-23.66,1.43-67.74,2.86-104.3,4.3-20.8.71-31.9,11.83-31.9,26.88,0,11.83,9,25.45,33,25.45,34.41,0,121.5.72,164.88.72,28.67,0,42.64-15.77,42.64-48.75,0-52-47.3-131.18-185.3-131.18-125.09,0-215.77,62.36-215.77,164.16,0,144.44,212.9,188.53,368.46,135.12,14.7-5,28.32-15.77,24-32.26-4-14.34-15.77-19.71-33.7-16.13Zm-1464.15,0C300,766,155.56,736.93,155.56,647.68c0-67.38,62.72-95,111.83-98.93,51.61-4.29,92.11,6.81,112.9,28.32,12.91,13.62,9.32,31.9-16.13,33.34-23.66,1.43-67.74,2.86-104.3,4.3-20.79.71-31.9,11.83-31.9,26.88,0,11.83,9,25.45,33,25.45,34.41,0,121.51.72,164.88.72,28.67,0,42.65-15.77,42.65-48.75,0-52-47.31-131.19-185.3-131.19C158.07,487.82,67.39,550.19,67.39,652c0,144.45,212.9,188.53,368.45,135.12,14.7-5,28.32-15.76,24-32.25-3.59-14.34-15.77-19.71-33.69-16.13ZM1403.59,600c2.86,78.85,10,144.08,12.18,167,2.51,29.39,17.92,38,33.34,38,14.69,0,30.46-7.53,33-37.64,2.15-25.08,9.67-103.22,13.26-180.28.36-3.94-2.51-5.74-5.74-5l-82.07,13.26A4.66,4.66,0,0,0,1403.59,600Zm45.87-111.83c-37.63,0-48.74,29.39-48.38,47.67,0,3.23.36,12.55,1.07,24.38a5.06,5.06,0,0,0,5.74,4.66l85.66-14a5.26,5.26,0,0,0,4.3-4.66c.36-3.94.36-8.25.36-10C1498.57,518.65,1487.46,488.18,1449.46,488.18ZM1323.66,614c-28.68,0-116.85.72-173.12.72-27.24,0-34,14.69-34,26.88,0,10.75,7.17,24.37,33,25.8,39.07,2.16,88.53,4.31,111.11,5.38,30.83,1.43,31.18,17.56,20.79,30.83-20.79,27.24-71.68,45.16-124.37,45.16-68.82,0-144.8-39.07-144.8-101.44,0-58.42,64.88-122.57,257.7-95.34,16.85,2.51,33.69-.71,38-16.48,4.3-16.85-6.45-27.24-28.31-33.34-43.73-11.47-83.52-14.34-121.51-14.34-129.75,0-234,62-234,162C924,756.64,1027.6,809,1157,809c144.45,0,214.7-78.49,214.7-147.32-.36-34.4-18.28-47.66-48-47.66Z"/></svg>