<svg version="1.1" id="Layer_1" xmlns="http://www.w3.org/2000/svg" xmlns:xlink="http://www.w3.org/1999/xlink" x="0px" y="0px" viewBox="0 0 2500 843" style="enable-background:new 0 0 2500 843;" xml:space="preserve">
<style type="text/css">
	.st0{fill-rule:evenodd;clip-rule:evenodd;}
</style>
<path class="st0" d="M962.6,370.7c11.4,23.9-39.5,48.2-37.2,19.8c3.5-5.8,14-9.3,10.5-16.3c-22.1-11.6-41.8,19.8-66.2,10.5  C843.9,375.4,954.5,310.2,962.6,370.7z M1730.8,339.3c-9.6-13.1-26.9-17.9-41.8-11.6c-40.7,3.5-20.9,50-52.3,63.9  c-135.5,73-34.7-138.3-173.2,15.1c-4.6,3.5-11.6,7-16.3,1.2c1.1-125.1-45.3-17.4-96.5,12.8c-27.9,8.1-10.5-30.2-29-38.4  c-31.6-4.6-45.3,29.7-20.9,51.1c36.9,40.8,73.8-1,104.6-27.9c28,6.6,5.7,46.1,60.4,29.1c39.3-4.2,13.4-22.3,45.3-30.2  c68.7,6.8-6.3,69.5,122,16.2c15.1-1.1,34.9,12.8,43-8.1c5.9-14.7,2.1-73.9,27.9-52.3c36.2,80.7-91.8,115.3-89.5,160.4  C1686.9,514,1772.8,412.7,1730.8,339.3z M1328.7,277.7c6,18.8-22,32.5-37.2,33.7c-16.3,10.5-12.8,31.4-29.1,43  c-3.5,15.1-24.4,23.2-20.9,41.8c-0.6,40.7-33.6,75.9-34.8,118.5c-46.2,16.2-9.7-63.1-16.3-87.2c-9.1-8.5-17.7,18.6-43,15.1  c-27.9,8.6-52.2-42.6-66.2-15.1c-19.2,56.4-97.5,10.5-26.7-44.1c18.3-20.7,43-14.4,67.4-7c8.1,4.6,2.3,20.9,4.7,32.5  c25.6,44.4,64-37.6,91.8-46.5c10.5-2.3,17.4-8.1,22.1-17.5C1253.2,310.2,1285.8,223.4,1328.7,277.7z M1064.9,399.7  c-7,4.6-16.3,12.8-16.3,20.9C1057.4,431.1,1086,396.4,1064.9,399.7L1064.9,399.7z M903.4,414.9c-105.6,87.1,39.5,98.4,79,41.8  c-7.8-23.9-78.7,40.6-87.2,2.3C909.1,445,956.3,388,903.4,414.9z M866.2,74.4c-171.2,33-299.2,174.3-414.9,294  c-156.2,48-335.9,85.1-449.7,215c-2.7,25.7,83.1,52.8,93,26.8C85.1,591,23.3,597,48.1,568.2c75.9-70.2,168.7-97,262.6-134.8  c40-8.9,98.2-50,133.6-37.2c-12.8,21-23.2,45.4-26.7,72.1c-35.3,145.3,110.3,278,244.1,199.8c10.3-3.8,9.7-16.6-3.5-15.1  C501.7,724,383.4,535.8,467.6,404.4c69.8-74.2,202-63.1,297.5-54.6c27.7,28.3,70.3,17,20.9-12.8c-82.1-39.8-184.5,1.5-261.5-3.5  C680.4,187.1,726.4,113.8,906.9,100C1022.1,119.9,923.1,61.5,866.2,74.4z M787.2,601.9c-14.9,4.3-112.1,25.3-62.8,39.5  C746.1,632.9,795.3,616,787.2,601.9L787.2,601.9z"/>
<path class="st0" d="M184.1,593.8c-17.3,8.2-1.8,16,9.3,12.8C209.2,599.5,193.8,592.9,184.1,593.8z M114.3,598.5  c-24.4,16,35.7,16.6,45.3,10.4C166.6,581.9,127.4,600.4,114.3,598.5z M696.5,635.6c-22.7,4-29,27.3,1.2,22.1  C716.2,654.9,716,634.8,696.5,635.6L696.5,635.6z M867.4,685.6c16.3,4.7,4.9-42.9,8.1-50c2.3-10.2-6.5-4.7-8.1-10.5h50v14  c-5.8-4.6-3-11.6-16.3-10.5c-3,0.8-17.1-2.4-16.3,3.5v20.9c9.3-1.3,24.5,5.1,25.5-9.3c4.9-3.4,1.2,21.3,2.3,22.1  c-7.6-9.7-14.1-10.4-27.9-9.3v23.2c0.5,8.5,22.3,4,26.7,2.3c5,0.2,5.4-11.3,11.6-10.5l-4.7,16.3C918,686.4,863.2,691.2,867.4,685.6  L867.4,685.6z M944,655.4C933.7,593,998.3,656.7,944,655.4z M925.4,687.9h26.7c-1.7-5.3-10.4,0-8.1-10.5c1.3-1.9-3.3-22.4,3.5-18.6  l23.3,29c0.9-1.1,19.3,2.5,16.3-2.3c-8.1,2-23-23.7-27.9-27.9c16.9,0.5,23.6-24.1,7-30.2c-8.4-3.6-31.3-2-40.7-2.3  c13.8,3.4,6.6,38.4,8.1,51.2C935.8,688.2,927.9,682.4,925.4,687.9L925.4,687.9z"/>
<path class="st0" d="M999.8,663.5c12.2-30.8,9-28.7,22.1,0H999.8z M999.8,687.9v-2.3c-11.4,0.5-6.4-7.8-1.2-17.4  c15.2,0.9,26.4-5.6,30.2,14c0.2,4.8-4.1,3.2-7,3.5c-3.5,5,23.7,1.2,24.4,2.3c-9.3-2.5-26.9-56.5-33.7-63.9  c-7,10.6-19.2,60-32.5,61.6C976.8,690.5,998.9,686.9,999.8,687.9L999.8,687.9z M1050.9,669.3c2,21.5,42,20.5,26.7-2.3  c-3-4.7-17.6-11.4-22.1-16.3c-13.9-14,4.6-31.7,20.9-25.5c13.1,7.2,8.8-15.5,12.8,19.8c-6.8-9.4-24.1-29.5-30.2-8.1  c2.2,12.3,23.4,16.8,29.1,25.5c14.2,19.4-16.5,34-31.4,23.2c-3.6,0.5-2.2,4.3-5.8,3.5C1052.1,688.1,1045.5,666.2,1050.9,669.3  L1050.9,669.3z M1098.6,685.6c18.2,2.8,5.9-40.7,9.3-50c2.3-10.4-6.5-5.2-8.1-10.5c27.5-7.8,29.1,31.9,39.5,47.7  c10.4-15.2,13.9-55.8,40.7-47.7c-1.7,5.8-10.4,0.2-8.1,10.5c3.1,7.2-8.1,54.5,8.1,50c3.9,3.7-30.6,3.6-26.7,0  c16.5,4.5,4.8-43.6,8.1-51.1c-1.1,0.1-23.2,55.5-25.6,53.5l-23.2-51.1c1.3,12.3-5,47.6,8.1,51.1  C1120,686.7,1095.2,690.7,1098.6,685.6L1098.6,685.6z M1211.3,625.2c-1.6,5.7-10.5,0.6-9.3,10.5c1.9,14.6-7.7,50,16.3,50  c23.4,6.3,26.2-58.2,9.3-58.1c-3.4-5,21.2-1.2,22.1-2.3c-2.9,5.5-10.6,2.5-9.3,14c11.1,72.4-60.5,65.9-47.7-3.5  c0.3-7.6-0.8-7.5-8.1-8.1C1180.9,622.4,1210.7,626.4,1211.3,625.2L1211.3,625.2z M1254.3,669.3c2.8,21.8,43,20.6,27.9-2.3  c-7.7-7.3-27.3-13.2-27.9-26.7c5.5-27.5,26.2-8.4,36-16.3c-1.1,1,5.5,24.1,0,20.9c0.3-20.9-36.1-22.9-24.4-2.3  c7.9,10.3,29,13.8,29,29c0,17.6-22.4,21.2-34.8,13.9c-3.3,0.4-1.1,4.4-4.7,3.5C1256.6,688.1,1248.7,666.2,1254.3,669.3L1254.3,669.3  z M1354.3,625.2c-1.7,5.8-10.4,0.2-8.1,10.5c2,14.8-8.1,49.9,16.3,50c21.8,6.1,25-59.8,8.1-58.1c-3.4-5,21.2-1.2,22.1-2.3  c-3.2,5.6-10.3,2.2-8.1,14c11,71.6-62.3,65.9-48.8-3.5c0.3-7.5-0.8-7.5-8.1-8.1C1323.9,622.4,1353.6,626.4,1354.3,625.2  L1354.3,625.2z M1398.5,685.6c17.5,1.7,6.3-44.4,9.3-53.4c-3.8-2.9-4.9-5.5-9.3-4.7c13-17.8,44.3,35.4,52.3,43  c-2.7-9.2,7.7-44.4-9.3-43c-3.4-5,22.4-1.2,23.2-2.3c-16.5,2.4-7,50.5-9.3,63.9c-3.7,3.3-42-51-44.2-51.1c2.9,8.8-8,50.9,9.3,47.6  C1423.9,689.4,1395,689.2,1398.5,685.6L1398.5,685.6z M1470.5,685.6c16.4,4.7,4.9-42.9,8.1-50c2.3-10.5-6.4-5.1-8.1-10.5  c0.8,1.3,30.3-2.9,26.7,2.3c-16.3-4.7-4.9,42.9-8.1,50c-2.3,10.5,6.4,5.1,8.1,10.5C1496.4,686.6,1466.9,690.8,1470.5,685.6  L1470.5,685.6z M1529.8,625.2c1.3,5.4-8.5-0.9-7,5.8c0.3,6.1,16.4,36.1,18.6,43c0.6-7.6,19.3-40.9,12.8-46.5  c-16.3-2.5,12-2.7,13.9-2.3c-0.7,4.2-7.3,2.4-8.1,10.5c-30.3,85.8-19.2,44.1-51.1-7C1490.1,622.7,1528.8,626,1529.8,625.2  L1529.8,625.2z M1575,685.6c15.8,3.7,5.2-43,8.1-50c1.3-10.2-6.1-4.7-8.1-10.5h50c-1,1.3,2.4,16.5-2.3,14c-1.2-4.7-2.3-7-3.5-8.1  c-25.9-6.2-28.6-5.3-26.7,22.1c11.2-0.3,23,3.2,26.7-9.3v22.1c-4.7-4-3-9.7-11.6-9.3c-22.1-3.4-13.6,8.4-15.1,23.2  c8.1,12.5,30.8,1.4,37.2-8.1l-3.5,16.3C1625.7,686.4,1570.8,691.2,1575,685.6z M1650.5,655.4c0.4-1.6-1.1-25.2,1.2-25.6  C1678.7,621.5,1679.5,662.5,1650.5,655.4L1650.5,655.4z M1633.1,687.9c0.8-1.3,30.2,2.8,26.7-2.3c-14.4,3.1-7.9-19.2-9.3-26.7h4.7  l23.2,29c1-1.1,18,2.5,15.1-2.3c-8.1,2.2-22.1-23.7-26.7-27.9c45.6-19.8-8.8-39.3-33.7-32.5c13.8,3.4,6.6,38.4,8.2,51.1  C1643.5,688.2,1635.6,682.4,1633.1,687.9L1633.1,687.9z M1698.2,669.3c2.7,14.9,28.9,25,31.3,5.8c-2-17.5-46-22.9-25.6-46.5  c10.2-11,22.7,3,30.2-4.6c-1.1,1,5.4,24.1,0,20.9c0.2-20.8-35.7-22.9-24.4-2.3c11.8,10.8,42.1,22.6,23.2,41.8  c-6.6,7-21.4,5.1-29,1.1c-3.3,0.4-1,4.4-4.6,3.5C1700.5,688.1,1692.5,666.2,1698.2,669.3L1698.2,669.3z M1747,685.6  c18.5,5.6,5.8-42.2,9.3-50c2.3-11.2-6.8-4.7-9.3-10.5c0.7,1.4,31.5-2.9,27.9,2.3c-17.6-4.6-6.2,42.5-9.3,50  c-1.2,10,7.7,5.3,9.3,10.5C1774.2,686.6,1743.4,690.8,1747,685.6L1747,685.6z M1779.5,625.2h53.5c-1.1,1.2,4,19.2-1.2,16.3  c-1.9-12.6-9.6-12-20.9-11.6c2,11.9-6.6,57,9.3,58.1c-0.8-1.4-31.5,2.9-27.9-2.3c18.8,5.7,5.5-47.7,9.3-55.8  c-16.2-2.4-14.5,4.2-22.1,11.6C1779.6,641.5,1779.6,625.2,1779.5,625.2L1779.5,625.2z M1865.5,625.2c1.1,3.5-2.8,2-4.6,2.3  c-8.3,3.8,11.3,22.2,12.8,26.7c0.7-1.4,15.7-22.8,15.1-23.2c1.2-5.4-7.1-1.3-5.8-5.8c21.5,1.9,25.4-6.5,7,12.8  c-7.9,9.1-17.4,27-13.9,39.5c-1.2,10.8,8,4.8,10.4,10.5c-0.7-1.5-32.7,3-29.1-2.3c8.4,0.1,8.4-0.8,9.3-9.3V660  c-8.3-8.3-16.8-31-27.8-32.5C1835.2,622.4,1864.9,626.4,1865.5,625.2z M1945.7,655.4c0.7-1.5-1.5-25.9,1.2-25.6  C1973.6,622.1,1974.8,662.5,1945.7,655.4L1945.7,655.4z M1928.3,687.9h25.6c-1.6-5.1-9-0.6-8.1-10.5c1.4-3-4-22.8,4.7-18.6l23.2,29  c1-1.1,18,2.5,15.1-2.3c-8.1,2-23-23.7-27.9-27.9c47.4-18.2-6.7-39.8-32.5-32.5c13.4,3.5,6.7,38.5,8.1,51.1  C1937.7,688.2,1931,682.4,1928.3,687.9L1928.3,687.9z M1996.8,656.6c2.8-59,62.1-13.3,34.8,22.1C2015,695.5,1995,679.2,1996.8,656.6  L1996.8,656.6z M1986.4,656.6c-1.2,41.8,63.5,43.5,61.6,0C2050.1,614.1,1984.2,614.4,1986.4,656.6L1986.4,656.6z M2053.8,625.2h53.4  c-1.1,1.1,4,19.2-1.1,16.3c-1.9-12.6-9.6-12-20.9-11.6c2,11.9-6.6,57,9.3,58.1c-0.8-1.4-30.3,2.9-26.7-2.3  c16.7,4.7,4.7-48.3,8.1-55.8c-11.3-0.4-17.7-0.5-19.8,11.6C2051.4,644.4,2054.9,626.2,2053.8,625.2L2053.8,625.2z M2113,625.2h53.5  c-1.1,1.2,2.5,19.1-2.3,16.3c-1.8-13.1-8.5-11.8-19.8-11.6c2.3,13.5-7.2,56.2,9.3,58.1c-0.8-1.4-31.5,2.9-27.9-2.3  c18.2,4.8,5.9-47.9,9.3-55.8c-9.5-0.8-20.3,0.1-19.7,11.6C2108.4,645.1,2114.2,627.2,2113,625.2L2113,625.2z M2171.1,685.6  c15.8,3.7,5.2-43,8.1-50c1-9.2-6.2-5-8.1-10.5h50v14c-4.1,0.7-3.9-8.2-5.8-8.1c-2.9-2.8-20.9-3.7-25.6-1.2  c-2.6-0.3-0.5,21.8-1.2,23.2h15.1c9.5,1.3,6.7-4.1,11.6-9.3v22.1c-4.1-10.8-16-9.8-26.7-9.3c1,2.5-2.4,26.9,2.3,26.7  c13.1,4.8,27.4-1.4,34.9-11.6l-3.5,16.3C2221.9,686.4,2167,691.2,2171.1,685.6L2171.1,685.6z M2246.7,655.4  c0.4-1.6-1.1-25.2,1.2-25.6C2274.8,621.5,2275.6,662.5,2246.7,655.4L2246.7,655.4z M2229.2,687.9c1.9-0.4,43.8,1.7,19.8-3.5  c-4-2.9-1.8-21-2.3-25.6c4.7-4.3,25.3,27.2,27.9,29c2.2-0.3,26,1.3,10.5-3.5c-2.8,0.6-20.2-25-22.1-26.7  c45.7-19.8-8.8-39.3-33.7-32.5c13.8,3.4,6.5,38.4,8.1,51.1C2239.6,688.2,2231.7,682.4,2229.2,687.9L2229.2,687.9z M2311.8,680.9  c2.6-3.8-6.2-57,5.8-52.3C2362.8,625.5,2348.4,702.5,2311.8,680.9L2311.8,680.9z M2294.3,687.9c90.2,14.2,77.5-82.2,0-60.4  c15.5-3.2,5.4,43.1,8.1,50C2303.6,686.8,2295.8,683,2294.3,687.9L2294.3,687.9z M2372.2,663.5c13.1-28.8,9.9-30.7,22.1,0H2372.2z   M2372.2,687.9v-2.3c-11.9,0.5-5.1-7.8-1.2-17.4c14.1,0.3,33.5-4.6,29.1,17.4c-20.8,2.4,17,2.7,18.6,2.3c-9-2.4-24.9-59.2-33.7-63.9  c-6.9,10.2-19.3,59.8-31.4,61.6C2350.5,690.5,2371.3,686.9,2372.2,687.9L2372.2,687.9z"/>
<path class="st0" d="M2418.7,685.6c17.2,1.6,6.5-41,9.3-50c1.2-10-7.7-5.3-9.3-10.5c26.8-8.1,30.3,32.5,40.7,47.7  c10.5-15.8,12-55.5,39.5-47.7c-1.7,5.8-10.4,0.2-8.1,10.5c3.1,7.2-8.1,54.5,8.1,50c3.9,3.7-30.6,3.6-26.7,0c18,4.5,6-43.2,9.3-51.1  c-1.1,0.1-23.2,55.5-25.6,53.5l-24.4-51.1V674c-1.2,12.2,5.7,9,9.3,13.9C2440.1,686.7,2415.2,690.7,2418.7,685.6z"/>
</svg>