<svg id="Layer_1" data-name="Layer 1" xmlns="http://www.w3.org/2000/svg" viewBox="0 0 2000 1000"><defs><style>.cls-1{fill:#223360;}.cls-2{fill:#e42e26;}</style></defs><g id="facilicomg-h"><path id="Path" class="cls-1" d="M1154.6,322.35a202.61,202.61,0,0,0-51.29-49l-9,36a166.76,166.76,0,0,1,22.87,21.5l1.37,1.55-1.37,1.61a168,168,0,0,1-253.08,0l-1.37-1.61,1.37-1.55a167.38,167.38,0,0,1,22.87-21.5l-8.93-36a201.7,201.7,0,0,0-51.29,49,17,17,0,0,0,0,20.26,202.89,202.89,0,0,0,99.11,72.6l1.31.42,6.8,30.5h113.52l6.79-30.62,1.25-.42a202.57,202.57,0,0,0,99.12-72.54A17,17,0,0,0,1154.6,322.35Z"/><path id="Path-2" data-name="Path" class="cls-1" d="M951.13,332.48a39.55,39.55,0,1,0,39.55-39.55A39.54,39.54,0,0,0,951.13,332.48Z"/><path id="Path-3" data-name="Path" class="cls-1" d="M1045.77,359.1a142.05,142.05,0,0,0,23.83-12.21l64.45-291.56h-74.93L1035.29,290.9a61.13,61.13,0,0,1,10.31,68.2Z"/><path id="Path-4" data-name="Path" class="cls-1" d="M935.58,359.1a60.93,60.93,0,0,1,10.25-67.9L922,55.63H847.19l64.63,291.56a142.61,142.61,0,0,0,23.76,11.91Z"/><path id="Path-5" data-name="Path" class="cls-1" d="M1018.32,278l15.42-222.65H947.61L963,278a61.61,61.61,0,0,1,55.34,0Z"/><polygon id="Path-6" data-name="Path" class="cls-1" points="1131.78 36.57 1104.5 0 1046.37 0 1058.64 36.57 1131.78 36.57"/><polygon id="Path-7" data-name="Path" class="cls-1" points="1024.75 0 956.55 0 948.03 36.57 1033.27 36.57 1024.75 0"/><polygon id="Path-8" data-name="Path" class="cls-1" points="934.99 0 876.38 0 849.04 36.57 922.66 36.57 934.99 0"/><polygon id="Path-9" data-name="Path" class="cls-2" points="432.51 507.89 547.23 507.89 547.23 539.1 468.79 539.1 468.79 595.63 534.9 595.63 534.9 626.84 468.79 626.84 468.79 707.55 432.51 707.55 432.51 507.89"/><path id="Shape" class="cls-2" d="M637.29,617.55h4.77v-2c0-18.82-11.92-25.31-27.58-25.31a76.77,76.77,0,0,0-39.37,13.82l-13.46-25.62a96.79,96.79,0,0,1,56.22-17.87c37.71,0,59.57,20.79,59.57,57.07v89.88H644.68V695.63a85.61,85.61,0,0,1,.59-10.12h-.59a46.32,46.32,0,0,1-43.54,25.31c-25.61,0-48.67-16-48.67-44.73C552.36,620.64,613.94,617.55,637.29,617.55ZM610,683.07c18.82,0,32.35-20.2,32.35-37.65V642h-6c-18.29,0-47.65,2.56-47.65,22.51-.42,9.53,6.61,18.53,21.26,18.53Z"/><path id="Path-10" data-name="Path" class="cls-2" d="M770.89,560.78c37.41,0,55.1,21.33,55.1,21.33l-15.73,24.78a56.23,56.23,0,0,0-37.4-15.43,42.59,42.59,0,0,0-43.6,44.43,43.64,43.64,0,0,0,44.73,45,66,66,0,0,0,42.17-18.28l13.76,25.31a81.72,81.72,0,0,1-59,23.35c-47.65,0-77.91-33.47-77.91-75.11S723.36,560.78,770.89,560.78Z"/><path id="Shape-2" data-name="Shape" class="cls-2" d="M845.46,507.89h35.38V539.7H845.46Zm0,56.23H881.2V707.55H845.46Z"/><path id="Path-11" data-name="Path" class="cls-2" d="M907.29,507.89H943V657.51c0,15.73,5.36,19.66,14.65,19.66a52.14,52.14,0,0,0,5.3-.3v31.27a80.72,80.72,0,0,1-11.2.84c-19.71,0-44.19-5.07-44.19-46.11Z"/><path id="Shape-3" data-name="Shape" class="cls-2" d="M978.23,507.89h35.38V539.7H978.23Zm0,56.23H1014V707.55H978.23Z"/><path id="Path-12" data-name="Path" class="cls-2" d="M1109.27,560.78c37.34,0,55.09,21.33,55.09,21.33l-15.78,24.78a56.22,56.22,0,0,0-37.35-15.43,42.59,42.59,0,0,0-43.6,44.43,43.66,43.66,0,0,0,44.74,45,66,66,0,0,0,42.17-18.28l13.75,25.31a81.68,81.68,0,0,1-59,23.35c-47.65,0-77.91-33.47-77.91-75.11S1061.62,560.78,1109.27,560.78Z"/><path id="Shape-4" data-name="Shape" class="cls-2" d="M1251.86,560.78c43.84,0,79,31.21,79,75.05s-35.14,75.11-78.68,75.11-79-30.91-79-75.11S1208.26,560.78,1251.86,560.78Zm.3,119.78a44.73,44.73,0,1,0-42.77-44.73,42.58,42.58,0,0,0,42.83,44.73Z"/><path id="Path-13" data-name="Path" class="cls-2" d="M1348.35,564.12h34.31v16.62a83,83,0,0,1-.59,9.83h.59a54.21,54.21,0,0,1,46.7-29.79c21.92,0,35.74,10.13,41.69,29.49h.54a56.24,56.24,0,0,1,49-29.49c29.78,0,46.93,16.86,46.93,54.56v92.21h-35.73V622.07c0-16.32-3.1-28.71-19.72-28.71-18.28,0-30.38,14.66-34.54,32.65a75.79,75.79,0,0,0-1.73,18.58v63H1440V622.07c0-15.48-2.56-28.71-19.42-28.71-18.58,0-30.67,14.66-35.14,32.94a73.52,73.52,0,0,0-1.73,18.29v63H1348Z"/><path id="Path-14" data-name="Path" class="cls-2" d="M711.92,740.78c49,0,74.28,25.32,74.28,25.32l-17.87,27A86.09,86.09,0,0,0,715.14,774c-44.67,0-68.62,31-68.62,68.62,0,43.3,29.79,71.47,67,71.47a75.06,75.06,0,0,0,50-20.79V869.91H732.77V838.7H796V943.89H765.11V926.08h-.59a84.55,84.55,0,0,1-57.9,21.39c-52.59,0-97.86-40.8-97.86-103.52A100.72,100.72,0,0,1,711.92,740.78Z"/><path id="Path-15" data-name="Path" class="cls-2" d="M819.44,800.41h34.3v24.71a93.65,93.65,0,0,1-.59,10.19h.59c6.44-20.55,23.83-36.87,45.57-36.87a42.05,42.05,0,0,1,6.43.54v35.2a56.22,56.22,0,0,0-8.4-.6,40.75,40.75,0,0,0-39.13,30.08,78.79,78.79,0,0,0-3.1,23.35v56.82H819.38Z"/><path id="Shape-5" data-name="Shape" class="cls-2" d="M986.75,797c43.9,0,79,31.27,79,75.11s-35.14,75.11-78.74,75.11-79-31-79-75.11S943.21,797,986.75,797Zm0,119.84A44.79,44.79,0,1,0,944,872.12a42.63,42.63,0,0,0,43,44.49Z"/><path id="Path-16" data-name="Path" class="cls-2" d="M1081.27,800.41H1117v84.93c0,17.45,4.47,29.25,22.22,29.25,25.85,0,40.2-22.82,40.2-48.37V800.7h35.74V944.13h-34.43V927.81a95.35,95.35,0,0,1,.54-10.13h-.54A55.33,55.33,0,0,1,1131,947.47c-30.68,0-49.8-15.49-49.8-54.56Z"/><path id="Shape-6" data-name="Shape" class="cls-2" d="M1243.28,800.41H1276v10.42a83,83,0,0,1-.59,9.83h.59s12.39-23.83,46.11-23.83c38.83,0,63.55,30.68,63.55,75.11,0,45.57-27.82,75.11-65.52,75.11a49.44,49.44,0,0,1-41-19.72h-.53s.53,5.07.53,12.39V1000H1243.4Zm70.35,116.68c19.65,0,35.74-16,35.74-44.44,0-27.28-14.66-45-35.74-45-18.53,0-35.74,13.53-35.74,45.27C1277.89,895.17,1290,917.09,1313.63,917.09Z"/></g></svg>