<?xml version="1.0" encoding="utf-8"?>
<!-- Generator: Adobe Illustrator 25.3.1, SVG Export Plug-In . SVG Version: 6.00 Build 0)  -->
<svg version="1.1" id="Layer_1" xmlns="http://www.w3.org/2000/svg" xmlns:xlink="http://www.w3.org/1999/xlink" x="0px" y="0px"
	 viewBox="0 0 2000 1000" style="enable-background:new 0 0 2000 1000;" xml:space="preserve">
<style type="text/css">
	.st0{fill-rule:evenodd;clip-rule:evenodd;fill:#010101;}
	.st1{fill-rule:evenodd;clip-rule:evenodd;fill:#76C1DC;}
</style>
<path class="st0" d="M1005,607.5c19.3-3.4,29.8-19.6,29.8-38.4c0-29-20.4-41.8-47.2-41.8h-52.8v135.8h35.3v-52.3h0.4l33.3,52.2h44
	L1005,607.5L1005,607.5z M970.1,554.4h3.4c11.5,0,24.5,2.2,24.5,17s-13,16.9-24.5,16.9h-3.4V554.4z M1117.8,567.7
	c-29.7,0-55.7,17.8-55.7,49.4s26.2,49.2,55.7,49.2c29.7,0,55.7-17.8,55.7-49.2C1173.4,585.6,1147.5,567.7,1117.8,567.7L1117.8,567.7
	z M1117.8,596.1c13.3,0,21.1,9.6,21.1,20.9c0,11.7-7.8,20.7-21.1,20.7s-21.1-9-21.1-20.7C1096.7,605.7,1104.4,596.1,1117.8,596.1z
	 M1236.4,597.8h18.6v-27h-18.6V543h-32.8v27.8H1193v27h10.6v65.4h32.8L1236.4,597.8z M1313.1,597.8h18.5v-27h-18.5V543h-32.8v27.8
	h-10.6v27h10.6v65.4h32.8V597.8z M1380.4,603.6c1.9-9.5,9.9-14.6,19.5-14.6c8.8,0,16.9,5.8,18.5,14.6H1380.4z M1448.9,619.1
	c0-31.5-18.6-51.3-50.6-51.3c-30.1,0-51.2,18.5-51.2,49.4c0,31.9,22.9,49.2,53.5,49.2c21.1,0,41.8-9.9,47-31.7H1416
	c-3.6,6.1-8.6,8.4-15.7,8.4c-13.5,0-20.6-7.2-20.6-20.5h69.1L1448.9,619.1L1448.9,619.1z M1508.8,570.8h-32.8v92.4h32.8v-37.3
	c0-15.8,4.6-27.9,22.7-27.9c5,0,9.4,0.5,13.9,3v-31.5h-6.3c-12.8,0-23.6,5-29.9,16.4h-0.4L1508.8,570.8L1508.8,570.8z M1639.2,663.2
	h32.8V513.7h-32.8v66.1c-6.9-8.1-18-12.1-28.7-12.1c-27.4,0-46.3,22.7-46.3,49.2s19.3,49.4,46.7,49.4c10.8,0,22.2-4.1,27.9-13.3h0.3
	L1639.2,663.2z M1619.2,596.1c13.3,0,21.1,9.6,21.1,20.9c0,11.7-7.8,20.7-21.1,20.7s-21.1-9-21.1-20.7
	C1598.1,605.7,1605.9,596.1,1619.2,596.1L1619.2,596.1z M1753.2,596.1c13.3,0,21.1,9.6,21.1,20.9c0,11.7-7.8,20.7-21.1,20.7
	s-21.1-9-21.1-20.7C1732.1,605.7,1739.8,596.1,1753.2,596.1L1753.2,596.1z M1806,570.8h-32.8v9c-6.8-8.1-18-12.1-28.6-12.1
	c-27.4,0-46.3,22.7-46.3,49.2s19.3,49.3,46.7,49.3c10.8,0,22.2-4.1,27.9-13.3h0.3v10.3h32.8V570.8z M1873,570.8h-32.9v92.4h32.8
	v-44.1c0-10.3,0-26,14.6-26s14.6,15.7,14.6,26v44.1h32.8v-44.1c0-11,0.5-25.2,15.7-25.2c13.8,0,13.5,15.7,13.5,25.2v44.1h32.8v-58.9
	c0-21.2-8.1-36.5-31.5-36.5c-12.6,0-25.1,6.1-31.4,17.7c-6.7-12.3-18.2-17.7-31.5-17.7c-11.9,0-21.5,4.3-29.2,14.6h-0.3L1873,570.8
	L1873,570.8z M934.8,468.4h35.3v-45h20c30.8,0,48.1-14,48.1-46.1c0-31.2-20.2-44.6-49.4-44.6h-54.1V468.4z M970.1,361.1h6
	c13.7,0,25.4,0.2,25.4,17.3c0,16.6-12.6,16.6-25.4,16.6h-6V361.1z M1114.3,373c-29.7,0-55.7,17.8-55.7,49.3s26.1,49.2,55.7,49.2
	c29.8,0,55.7-17.8,55.7-49.2C1170,390.8,1144,373,1114.3,373z M1114.3,401.4c13.3,0,21.1,9.6,21.1,20.9c0,11.7-7.8,20.7-21.1,20.7
	s-21.1-9-21.1-20.7C1093.2,411,1100.9,401.4,1114.3,401.4L1114.3,401.4z M1229.8,376H1197v92.4h32.8v-37.3
	c0-15.9,4.5-27.9,22.7-27.9c5,0,9.3,0.5,13.9,3v-31.5h-6.3c-12.8,0-23.6,5-29.9,16.4h-0.4L1229.8,376L1229.8,376z M1329.8,403h18.6
	v-27h-18.6v-27.7H1297V376h-10.6v27h10.6v65.4h32.8L1329.8,403z M1488.4,373c-29.7,0-55.7,17.8-55.7,49.3s26.2,49.2,55.7,49.2
	c29.7,0,55.7-17.8,55.7-49.2C1544.1,390.8,1518.2,373,1488.4,373z M1488.4,401.4c13.4,0,21.1,9.6,21.1,20.9
	c0,11.7-7.7,20.7-21.1,20.7s-21.1-9-21.1-20.7C1467.4,411,1475.1,401.4,1488.4,401.4L1488.4,401.4z M1607.2,403.1h22.9V376h-22.9
	v-14.9c0-10.5,2.9-15.5,11.3-15.5c4.3,0,7.8,1.5,11.5,3.1v-28.3c-4.3-2.2-9.1-3.4-14-3.3c-12.4-0.1-24.2,5.3-32.2,14.8
	c-9,10.2-9.4,19.6-9.4,32.4V376h-11.6v27h11.5v65.4h32.8V403.1L1607.2,403.1z"/>
<path class="st1" d="M208,757.2l-98.2,57.7c-31.4,20.5-73.6,11.7-94.1-19.7C-4.9,763.7,4,721.6,35.4,701c1.6-1,3.2-2,4.9-2.9
	L208,599.6l170.8,96.5L648.5,539c32.2-19.3,73.9-8.9,93.2,23.3s8.9,73.9-23.3,93.2c-0.1,0.1-0.3,0.2-0.4,0.2L378.8,854.5L208,757.2z
	"/>
<path class="st1" d="M208,559.5l-98.2,57.7c-31.9,19.7-73.8,9.9-93.5-22c-19.7-31.9-9.9-73.8,22-93.5c0.6-0.4,1.3-0.8,2-1.2
	L208,401.9l170.8,96.6l269.7-157.1c31.7-20,73.7-10.6,93.7,21.1c20,31.7,10.6,73.7-21.1,93.7c-1,0.6-2,1.2-3.1,1.8L378.8,656.7
	L208,559.5z"/>
<path class="st1" d="M550.3,199.5l98.2-57.7c31.9-19.8,73.8-10,93.5,21.9s10,73.8-21.9,93.5c-0.7,0.4-1.4,0.9-2.2,1.3l-167.7,98.5
	l-170.8-96.5L109.8,417.6c-31.6,20.3-73.6,11.1-93.8-20.5s-11.1-73.6,20.5-93.8c1.3-0.8,2.5-1.6,3.9-2.3l339.2-198.8L550.3,199.5z"
	/>
</svg>
