<svg width="600" height="600" viewBox="0 0 600 600" fill="none" xmlns="http://www.w3.org/2000/svg">
<path d="M135.22 532.84C132.653 532.84 130.157 532.63 127.73 532.21C125.35 531.79 123.227 531.067 121.36 530.04C119.493 528.967 118 527.543 116.88 525.77C115.807 523.95 115.27 521.64 115.27 518.84C115.27 518.607 115.27 518.42 115.27 518.28C115.27 518.093 115.293 517.837 115.34 517.51H119.19C119.143 517.743 119.097 518.047 119.05 518.42C119.05 518.747 119.05 519.05 119.05 519.33C119.05 521.617 119.75 523.53 121.15 525.07C122.55 526.563 124.417 527.683 126.75 528.43C129.13 529.13 131.72 529.48 134.52 529.48C135.127 529.48 136.06 529.433 137.32 529.34C138.58 529.247 139.933 529.037 141.38 528.71C142.873 528.337 144.273 527.8 145.58 527.1C146.933 526.4 148.03 525.467 148.87 524.3C149.757 523.087 150.2 521.547 150.2 519.68C150.2 517.813 149.71 516.273 148.73 515.06C147.797 513.8 146.537 512.773 144.95 511.98C143.363 511.187 141.567 510.51 139.56 509.95C137.553 509.343 135.477 508.783 133.33 508.27C131.183 507.757 129.107 507.197 127.1 506.59C125.093 505.937 123.297 505.143 121.71 504.21C120.123 503.277 118.84 502.087 117.86 500.64C116.927 499.193 116.46 497.42 116.46 495.32C116.46 493.64 116.787 492.053 117.44 490.56C118.093 489.067 119.143 487.783 120.59 486.71C122.037 485.59 123.95 484.727 126.33 484.12C128.757 483.467 131.72 483.14 135.22 483.14C137.647 483.14 139.887 483.397 141.94 483.91C144.04 484.423 145.883 485.217 147.47 486.29C149.057 487.317 150.293 488.647 151.18 490.28C152.067 491.913 152.51 493.873 152.51 496.16V497H148.73V495.53C148.73 493.663 148.147 492.077 146.98 490.77C145.813 489.417 144.25 488.367 142.29 487.62C140.33 486.873 138.137 486.5 135.71 486.5C132.07 486.5 129.107 486.873 126.82 487.62C124.58 488.367 122.923 489.37 121.85 490.63C120.823 491.843 120.31 493.197 120.31 494.69C120.31 496.463 120.777 497.933 121.71 499.1C122.69 500.267 123.973 501.223 125.56 501.97C127.193 502.717 129.013 503.37 131.02 503.93C133.027 504.49 135.08 505.027 137.18 505.54C139.327 506.053 141.403 506.637 143.41 507.29C145.417 507.943 147.213 508.76 148.8 509.74C150.433 510.72 151.717 511.957 152.65 513.45C153.63 514.943 154.12 516.787 154.12 518.98C154.12 522.153 153.303 524.767 151.67 526.82C150.083 528.873 147.867 530.39 145.02 531.37C142.22 532.35 138.953 532.84 135.22 532.84ZM170.97 532.77C169.523 532.77 168.38 532.537 167.54 532.07C166.7 531.603 166.093 530.927 165.72 530.04C165.393 529.107 165.23 528.033 165.23 526.82V498.19H160.05V495.18H165.23L165.93 484.96H168.59V495.18H176.08V498.19H168.59V525.84C168.59 527.24 168.73 528.267 169.01 528.92C169.336 529.527 170.153 529.83 171.46 529.83H176.08V531.79C175.613 532.023 175.076 532.21 174.47 532.35C173.863 532.49 173.256 532.583 172.65 532.63C172.043 532.723 171.483 532.77 170.97 532.77ZM183.034 532V495.18H185.554L185.904 501.55H186.324C186.604 500.43 187.047 499.333 187.654 498.26C188.307 497.14 189.217 496.207 190.384 495.46C191.55 494.713 193.02 494.34 194.794 494.34C195.447 494.34 196.03 494.387 196.544 494.48C197.057 494.573 197.43 494.667 197.664 494.76V497.7H195.704C193.977 497.7 192.507 498.05 191.294 498.75C190.127 499.45 189.17 500.383 188.424 501.55C187.724 502.717 187.21 504.023 186.884 505.47C186.557 506.87 186.394 508.293 186.394 509.74V532H183.034ZM212.093 532.84C210.413 532.84 208.85 532.63 207.403 532.21C206.003 531.837 204.766 531.253 203.693 530.46C202.666 529.62 201.85 528.57 201.243 527.31C200.683 526.05 200.403 524.557 200.403 522.83C200.403 520.263 201.056 518.187 202.363 516.6C203.67 515.013 205.49 513.8 207.823 512.96C210.156 512.073 212.91 511.49 216.083 511.21C219.256 510.883 222.686 510.72 226.373 510.72V505.19C226.373 503.51 226.046 502.087 225.393 500.92C224.786 499.753 223.69 498.867 222.103 498.26C220.563 497.653 218.416 497.35 215.663 497.35C213.05 497.35 210.973 497.7 209.433 498.4C207.94 499.053 206.866 499.963 206.213 501.13C205.606 502.25 205.303 503.51 205.303 504.91V506.1H202.083C202.036 505.867 202.013 505.633 202.013 505.4C202.013 505.167 202.013 504.887 202.013 504.56C202.013 502.133 202.62 500.173 203.833 498.68C205.046 497.187 206.75 496.09 208.943 495.39C211.183 494.69 213.75 494.34 216.643 494.34C219.396 494.34 221.73 494.76 223.643 495.6C225.603 496.393 227.096 497.56 228.123 499.1C229.196 500.593 229.733 502.413 229.733 504.56V527.52C229.733 528.407 229.873 529.013 230.153 529.34C230.433 529.667 230.876 529.83 231.483 529.83H234.773V531.79C233.933 532.163 233.163 532.42 232.463 532.56C231.763 532.7 231.11 532.77 230.503 532.77C229.243 532.77 228.31 532.49 227.703 531.93C227.143 531.323 226.77 530.53 226.583 529.55C226.443 528.523 226.373 527.427 226.373 526.26H225.883C224.95 527.66 223.736 528.85 222.243 529.83C220.75 530.81 219.14 531.557 217.413 532.07C215.686 532.583 213.913 532.84 212.093 532.84ZM212.373 529.83C213.96 529.83 215.57 529.573 217.203 529.06C218.836 528.5 220.33 527.73 221.683 526.75C223.083 525.77 224.203 524.603 225.043 523.25C225.93 521.85 226.373 520.31 226.373 518.63V513.87C221.193 513.87 216.97 514.15 213.703 514.71C210.436 515.223 208.01 516.133 206.423 517.44C204.883 518.747 204.113 520.567 204.113 522.9C204.113 524.58 204.486 525.933 205.233 526.96C205.98 527.987 206.983 528.733 208.243 529.2C209.503 529.62 210.88 529.83 212.373 529.83ZM240.251 486.71V481.39H243.611V486.71H240.251ZM240.251 532V495.18H243.611V532H240.251ZM260.224 544.74C258.357 544.74 256.654 544.32 255.114 543.48C253.574 542.687 252.361 541.567 251.474 540.12C250.587 538.673 250.144 537.063 250.144 535.29C250.144 533.237 250.657 531.44 251.684 529.9C252.757 528.313 254.204 527.147 256.024 526.4C254.717 525.887 253.737 525.093 253.084 524.02C252.477 522.947 252.174 521.85 252.174 520.73C252.174 519.19 252.711 517.837 253.784 516.67C254.857 515.457 256.257 514.663 257.984 514.29C256.537 513.263 255.347 512.003 254.414 510.51C253.527 508.97 253.084 507.337 253.084 505.61C253.084 503.51 253.574 501.62 254.554 499.94C255.534 498.213 257.051 496.86 259.104 495.88C261.204 494.853 263.864 494.34 267.084 494.34C268.717 494.34 270.211 494.48 271.564 494.76C272.917 494.993 274.131 495.367 275.204 495.88C276.837 495.46 278.167 494.713 279.194 493.64C280.267 492.52 280.991 491.097 281.364 489.37H284.864C284.771 490.537 284.421 491.727 283.814 492.94C283.254 494.107 282.437 495.11 281.364 495.95C280.337 496.79 279.077 497.303 277.584 497.49C278.797 498.657 279.684 499.94 280.244 501.34C280.804 502.693 281.084 504.117 281.084 505.61C281.084 507.663 280.594 509.553 279.614 511.28C278.634 512.96 277.117 514.313 275.064 515.34C273.011 516.367 270.351 516.88 267.084 516.88H261.204C259.617 516.88 258.287 517.183 257.214 517.79C256.141 518.35 255.604 519.377 255.604 520.87C255.604 522.177 256.164 523.18 257.284 523.88C258.451 524.533 259.874 524.86 261.554 524.86H275.204C277.864 524.86 280.011 525.793 281.644 527.66C283.324 529.48 284.164 531.743 284.164 534.45C284.164 536.363 283.697 538.09 282.764 539.63C281.877 541.217 280.617 542.453 278.984 543.34C277.397 544.273 275.554 544.74 273.454 544.74H260.224ZM260.434 541.8H273.314C274.667 541.8 275.904 541.473 277.024 540.82C278.144 540.213 279.031 539.373 279.684 538.3C280.384 537.273 280.734 536.153 280.734 534.94C280.734 532.887 280.151 531.207 278.984 529.9C277.817 528.593 276.394 527.94 274.714 527.94H260.434C258.567 527.94 256.957 528.64 255.604 530.04C254.251 531.393 253.574 533.027 253.574 534.94C253.574 537.04 254.251 538.697 255.604 539.91C256.957 541.17 258.567 541.8 260.434 541.8ZM267.084 513.87C270.677 513.87 273.337 513.123 275.064 511.63C276.791 510.137 277.654 508.13 277.654 505.61C277.654 503.09 276.791 501.083 275.064 499.59C273.337 498.097 270.677 497.35 267.084 497.35C263.537 497.35 260.877 498.097 259.104 499.59C257.377 501.083 256.514 503.09 256.514 505.61C256.514 507.15 256.887 508.55 257.634 509.81C258.427 511.07 259.617 512.073 261.204 512.82C262.791 513.52 264.751 513.87 267.084 513.87ZM289.88 532V481.39H293.24V500.22H293.73C294.85 498.68 296.04 497.49 297.3 496.65C298.606 495.81 299.983 495.227 301.43 494.9C302.923 494.527 304.51 494.34 306.19 494.34C308.523 494.34 310.553 494.713 312.28 495.46C314.006 496.16 315.336 497.35 316.27 499.03C317.25 500.71 317.74 502.997 317.74 505.89V532H314.38V505.89C314.38 504.117 314.146 502.67 313.68 501.55C313.213 500.43 312.56 499.567 311.72 498.96C310.926 498.353 309.97 497.933 308.85 497.7C307.776 497.467 306.61 497.35 305.35 497.35C303.343 497.35 301.406 497.817 299.54 498.75C297.673 499.637 296.156 501.013 294.99 502.88C293.823 504.747 293.24 507.15 293.24 510.09V532H289.88ZM334.896 532.77C333.449 532.77 332.306 532.537 331.466 532.07C330.626 531.603 330.019 530.927 329.646 530.04C329.319 529.107 329.156 528.033 329.156 526.82V498.19H323.976V495.18H329.156L329.856 484.96H332.516V495.18H340.006V498.19H332.516V525.84C332.516 527.24 332.656 528.267 332.936 528.92C333.262 529.527 334.079 529.83 335.386 529.83H340.006V531.79C339.539 532.023 339.002 532.21 338.396 532.35C337.789 532.49 337.182 532.583 336.576 532.63C335.969 532.723 335.409 532.77 334.896 532.77ZM360.4 532.84C357.086 532.84 354.24 532.163 351.86 530.81C349.526 529.41 347.73 527.287 346.47 524.44C345.256 521.593 344.65 517.977 344.65 513.59C344.65 509.157 345.256 505.54 346.47 502.74C347.73 499.893 349.573 497.793 352 496.44C354.426 495.04 357.413 494.34 360.96 494.34C364.32 494.34 367.12 495.017 369.36 496.37C371.646 497.723 373.373 499.66 374.54 502.18C375.706 504.653 376.29 507.593 376.29 511V514.5H348.22C348.22 518.233 348.71 521.243 349.69 523.53C350.716 525.77 352.14 527.38 353.96 528.36C355.826 529.34 358.043 529.83 360.61 529.83C362.756 529.83 364.576 529.55 366.07 528.99C367.563 528.43 368.776 527.683 369.71 526.75C370.69 525.817 371.413 524.743 371.88 523.53C372.393 522.317 372.673 521.08 372.72 519.82H375.94C375.893 521.407 375.566 522.97 374.96 524.51C374.4 526.05 373.513 527.45 372.3 528.71C371.086 529.97 369.5 530.973 367.54 531.72C365.58 532.467 363.2 532.84 360.4 532.84ZM348.22 511.49H372.79C372.79 508.83 372.486 506.613 371.88 504.84C371.273 503.02 370.41 501.573 369.29 500.5C368.216 499.38 366.933 498.587 365.44 498.12C363.993 497.607 362.383 497.35 360.61 497.35C358.043 497.35 355.85 497.863 354.03 498.89C352.256 499.87 350.88 501.41 349.9 503.51C348.92 505.563 348.36 508.223 348.22 511.49ZM384.215 532V495.18H386.665L387.085 501.41H387.575C388.695 499.497 389.932 498.027 391.285 497C392.685 495.973 394.155 495.273 395.695 494.9C397.235 494.527 398.845 494.34 400.525 494.34C402.859 494.34 404.889 494.713 406.615 495.46C408.342 496.16 409.672 497.35 410.605 499.03C411.585 500.71 412.075 502.997 412.075 505.89V532H408.715V505.89C408.715 504.117 408.482 502.67 408.015 501.55C407.549 500.43 406.895 499.567 406.055 498.96C405.262 498.353 404.305 497.933 403.185 497.7C402.112 497.467 400.945 497.35 399.685 497.35C397.679 497.35 395.742 497.84 393.875 498.82C392.009 499.8 390.492 501.247 389.325 503.16C388.159 505.027 387.575 507.337 387.575 510.09V532H384.215ZM434.971 532L454.291 483.98H459.751L479.071 532H475.011L469.411 518.14H444.351L438.821 532H434.971ZM445.751 514.78H468.011L461.011 497.35C460.871 496.977 460.661 496.417 460.381 495.67C460.101 494.923 459.775 494.06 459.401 493.08C459.028 492.1 458.631 491.097 458.211 490.07C457.838 489.043 457.488 488.087 457.161 487.2H456.601C456.275 488.087 455.878 489.137 455.411 490.35C454.945 491.563 454.478 492.8 454.011 494.06C453.545 495.273 453.125 496.37 452.751 497.35L445.751 514.78ZM486.659 532V483.98H490.439V532H486.659Z" fill="black"/>
<path d="M423.281 532V526.61H427.761V532H423.281Z" fill="#006AFF"/>
<rect x="118" y="48" width="374" height="370" rx="15" fill="white" stroke="black" stroke-width="10"/>
<rect x="162" y="106" width="286" height="36" rx="10" fill="#1E1E1E" fill-opacity="0.15"/>
<rect x="162" y="180" width="286" height="36" rx="10" fill="#1E1E1E" fill-opacity="0.15"/>
<rect x="162" y="254" width="286" height="36" rx="10" fill="#1E1E1E" fill-opacity="0.15"/>
<rect x="162" y="328" width="286" height="36" rx="10" fill="#1E1E1E" fill-opacity="0.15"/>
<path d="M334.253 120.839C332.672 123.103 333.226 126.22 335.49 127.801L372.383 153.568C374.647 155.149 377.764 154.595 379.345 152.331C380.926 150.067 380.372 146.95 378.109 145.369L345.315 122.466L368.218 89.6719C369.799 87.4079 369.246 84.2909 366.982 82.7097C364.718 81.1286 361.601 81.6821 360.02 83.946L334.253 120.839ZM119.186 316.687L115.594 313.209C97.2837 332.126 83.0346 348.606 72.5856 362.68C62.1821 376.693 55.3541 388.575 52.1494 398.278C48.9915 407.839 48.9534 416.672 54.5119 422.85C59.8427 428.775 68.8184 430.465 79.0259 429.896C99.7526 428.739 131.745 417.909 172.12 398.468C212.693 378.932 262.304 350.413 318.479 313.299L315.722 309.127L312.966 304.955C257.056 341.895 207.843 370.168 167.782 389.458C127.523 408.843 97.0694 418.873 78.4687 419.911C69.0124 420.439 64.1039 418.56 61.9459 416.161C60.0157 414.016 58.8844 409.772 61.6449 401.414C64.3586 393.198 70.4607 382.318 80.6148 368.641C90.7235 355.025 104.66 338.884 122.779 320.164L119.186 316.687ZM315.722 309.127L318.479 313.299C374.697 276.154 412.592 244.334 435.694 217.737C458.577 191.391 467.876 169.082 464.237 151.305C460.495 133.026 443.793 122.221 421.689 117.328C399.39 112.392 369.997 113.005 337.478 118.779L338.353 123.702L339.227 128.625C371.026 122.978 398.983 122.544 419.528 127.092C440.266 131.683 451.898 140.891 454.44 153.31C457.086 166.231 450.619 185.304 428.144 211.179C405.888 236.803 368.832 268.044 312.966 304.955L315.722 309.127Z" fill="#006AFF"/>
<line x1="118" y1="313" x2="118" y2="331" stroke="black" stroke-width="10"/>
</svg>
