<svg id="Layer_1" data-name="Layer 1" xmlns="http://www.w3.org/2000/svg" xmlns:xlink="http://www.w3.org/1999/xlink" viewBox="0 0 2000 1000"><defs><style>.cls-1{fill:#d8d9d8;}.cls-1,.cls-2,.cls-3{fill-rule:evenodd;}.cls-2{fill:#044448;}.cls-3{fill:url(#linear-gradient);}</style><linearGradient id="linear-gradient" x1="5.6" y1="999.81" x2="10.45" y2="992.29" gradientTransform="matrix(56.85, 0, 0, -87.88, -55.67, 87966.91)" gradientUnits="userSpaceOnUse"><stop offset="0" stop-color="#42c3d1"/><stop offset="0.44" stop-color="#47a5ac"/><stop offset="0.63" stop-color="#064e56"/><stop offset="1" stop-color="#064e56"/></linearGradient></defs><g id="Page-1"><g id="logo-Evides"><g id="Zeepaardje-_-Evides-_-Waterbedrijf" data-name="Zeepaardje-+-Evides-+-Waterbedrijf"><g id="Zeepaardje"><g id="Clip-2"><path id="path-1" class="cls-1" d="M596.17,200.73l35.42-47-65.09-33c-4.31-2-3.76-3.66-4.3-6.51a23.82,23.82,0,0,0-1-3.53,36.23,36.23,0,0,0-3.71-7.48,42.06,42.06,0,0,0-3.44-4.75c-6.83-8.6-15.18-16-16-29.39-.53-9.92,16.34-43.61-3.84-37.33-9.85,3.08-20.39,20.57-30.57,21.43-9.85.84-4.72-12.31-2-18.35,3.37-7.61,13.43-21.09,12.16-28.86-1.14-7-8.58-7.73-13.74-2.66-5,4.92-6,8.2-9.27,14.43-9.95,19.35-25.46,42.61-49.13,43.57-16.78.67-20.47-4.82-32.44-11.83-8.23-4.83-16.34-4.85-18.41,5.73-1.82,9.22,7.28,17.1,1.11,25.2-9.53,12.49-21.65,2.21-30.52-1.68-5-2.17-13.87-8.15-19.48,0-3.73,5.44,2,11.36,4.68,14.9,4.45,5.9,9.83,12.55,10.21,19.47.62.55,1.24,1.15,1.87,1.65,6.17,4.82,13.29,6,21.46,5.4,16.37-1.47,33.88-8,46.22,1.69-13.11-3.36-30.32,6.2-47.21,13.56-1.59.24-3.19.41-4.78.54-8.16.66-15.27-.54-21.44-5.38-.35-.29-.71-.62-1.06-.93l0,.05a3.51,3.51,0,0,0-4.69-.52c-.16.12-.32.22-.43.32a1.51,1.51,0,0,0-.2.2l0,0c-9.64,7.11-21.67,8.78-27.49,9.62a60.71,60.71,0,0,0-13.33,3.28c-3.44,1.49-6.18,4.33-7.07,7.14-.95,3.06-1.95,7,.81,12.11,3.62,6.65,12.15,10.89,17.75,15.66,1.84,1.55,3.92,3.22,5.9,4.94,6.42,5.64,11,11.71-2.33,16.1-8.43,2.78-20.92.5-28.82,3.05-4.26,1.33-8.18,4.14-7.4,9.84,1,6.69,5.57,9.29,9.27,12.93.71.71,1.44,1.38,2.19,2.09h-.05c11.27,11.1-8.52,14.23-9.87,14.4l-15.91-.38a4.46,4.46,0,0,0,0,8.92l5.19-.07c-1,0,4.9,0,5.55.12,11.67,2,13.08,8.91,13,16.39-.11,7-7.2,15.42-5.71,21.61a5.8,5.8,0,0,0,1.7,2.88c1.81,1.83,4.58,2.71,6.87,4.18,3.64,2.6,1.86,4.94.81,5.92a32.67,32.67,0,0,1-7.83,4.44c-24.91,9-14,26.71-14,26.71l0,0c.8.24,186.26,61.78,179.3,208.16a198.46,198.46,0,0,1-9.23,41.53c-21.7,55.7-78.82,100.54-141.27,106.33-27.09,2.55-51.53-5-68.73-21.37s-25.15-39.35-22.33-64.91c2.06-18.68,11.71-37,27.18-51.5s34.9-23.51,54.75-25.39c14-1.27,26.58,2.62,35.45,11s12.94,20.3,11.52,33.46C340.32,587,323,603.21,303.8,605s-36.69,18-38.69,36.32,12.06,31.63,31.43,29.78c57.93-5.35,109.93-54.16,115.94-108.73,3.39-30.84-6.18-58.66-26.93-78.33s-50.2-28.82-82.94-25.78c-38.57,3.59-76.4,21.12-106.5,49.36s-48.89,63.78-52.85,100.17C138.5,651,151.91,690,181,717.54s70.36,40.38,116.23,36.15c113.56-10.57,215.49-106.21,227.22-213.2a215.48,215.48,0,0,0-.16-48.59c-4.73-39.37-17.94-78.54-44.42-106.63l-8-9.07c23.59,16.12,39.05,38.1,52.76,63.75,8.25-3.45,23.88-5.69,30.82-12.87,8.76-9.09.71-16.19-2.15-24.91-3.31-10.06-3.9-14.45,6.13-22.72,9.61-8,22.33-12.61,13.11-24.13-5-6.27-15.62-5.12-12.57-16.29,1.85-6.75,11.59-13.85,16.54-18.44C596.38,302.21,566,305.79,564,290c-1.8-14.77,27.55-30.27,9.58-39-18.3-8.91-35.24,7.08-35.12-19.08.1-21.86-8.94-20.55-28.36-21.95-7.7-.56-17-2.77-20.83-8.34-4.2-6.1-3.86-17.17-17.74-10.6L470,192c0-.34-1.07-1.73-1.07-2.12,48.85-30,83.33,4.47,127.2,10.9ZM355.35,156a28.37,28.37,0,0,0,4,3.47c6.55,4.37,14,5.38,22.33,4.41,18.11-2.11,37.21-10.17,51.25,0-13.29-3.05-30.24,6.17-47,14-3.19.73-6.38,1.62-9.6,2.07-9,1.29-17,.1-24-5.12-4.65-3.53-8.34-9-11.84-15.32A47.38,47.38,0,0,0,355.35,156Zm4,45.56a17.57,17.57,0,0,0,3.44,2.37c6.93,3.92,14.62,4.65,23.21,3.4,19.82-2.91,40.54-12.39,56.28-1.66-13.5-2.73-30.19,6.14-46.9,14.51-4.77,1.14-9.58,2.72-14.4,3.52-9.81,1.67-18.77.73-26.49-4.84-4.11-2.93-7.42-7.53-10.61-12.77a56.65,56.65,0,0,0,15.47-4.53Zm-9.14,50.78a66,66,0,0,0,16.06-5.48,16.83,16.83,0,0,0,2.87,1.22c7.32,3.47,15.31,3.92,24.09,2.42,21.56-3.73,43.86-14.61,61.32-3.34-13.71-2.41-30.13,6.13-46.73,15-6.36,1.61-12.79,3.83-19.24,5-10.67,2-20.43,1.3-29-4.55-3.52-2.42-6.5-6.08-9.38-10.27Zm148.46,77.84c-14.11-1.74-30,6.1-46.43,15.89-9.52,2.57-19.22,5.91-28.85,8-12.39,2.6-23.62,2.18-34-4a49.86,49.86,0,0,1-6.89-5.16,93.7,93.7,0,0,0,17.29-7.48c.57-.31,1.12-.66,1.69-1,8.09,2.51,16.63,2.31,25.86.4,24.91-5.62,50.54-19.06,71.37-6.69Zm-26-41.72c-13.9-2.08-30.05,6.11-46.59,15.42-7.94,2.1-16,4.88-24,6.54-11.54,2.35-22.06,1.84-31.5-4.27a38.63,38.63,0,0,1-8.15-7.69A80.28,80.28,0,0,0,379,291.93c.76.08,1.5.15,2.28.16,7.69,3,16,3.12,25,1.34,23.26-4.54,47.2-16.81,66.36-5Z"/></g></g><g id="Evides"><path id="Fill-13" class="cls-2" d="M969.51,402c-.44,2.37-19,102.54-19,102.54l-.29,2.38-4.44-3.27L943.59,502c-21.29-14.63-46.75-18.52-71.69-10.86-34.47,10.54-64.11,41.26-81.37,84.21a239.14,239.14,0,0,0-17.92,90.39c-.06,35.07,12.85,63.31,35.41,77.46,20.86,13.05,47.87,13,74.12-.31,4.33-2,8.93-4.59,13-6.85,0,0,7.11-4.42,7.13-4.42l7-5.21s-3.28,17-3.82,19.84h67.19c.43-2.35,64.34-340.81,65-344.27ZM916.12,683.89l-2.76,1.76-1.69,1.08-.25.14,0,0c-19.44,9.51-36.68,10.33-48.59,2.28-11.68-7.88-17.44-23.85-16.27-45a166.23,166.23,0,0,1,6.74-37.55c11.43-41.94,32.39-61.87,62.44-59.21,8.33,1.25,14.95,3.68,20.63,7.64l4,2.57L916.07,683.36l0,.53Z"/><path id="Fill-14" class="cls-2" d="M741.61,469.37c24.49,0,46.78-21,46.78-44.09,0-17.1-13.5-29.55-32.16-29.55-24.47,0-46.78,20.78-46.78,43.58,0,17.42,13.53,30.06,32.16,30.06"/><path id="Fill-15" class="cls-2" d="M652.93,745.14h70.2c.44-2.33,48.6-249.3,49.29-252.76H702.7c-.47,2.31-49.1,249.3-49.77,252.76"/><path id="Fill-16" class="cls-2" d="M617.71,491.66c-5.25,11.8-68.59,154.28-68.67,154.43-1.37,2.3-2.54,5.78-7.24,20.1l-3.3,9.44-3.39,9.94-2.8-.67.92-7.37s.83-11.94.83-11.92c.43-7,.6-12,.6-15.78,0-1.66,0-3.07-.09-4.37,0,0-7.53-106.17-10.31-144.93h0a214.74,214.74,0,0,1-.68,39.51c-4.89,44.63-25.43,87.24-55.88,122.55,4.7,45.3,8.51,82.65,8.61,83.63H562.5c.79-1.61,120.66-250.43,122.64-254.56H617.71"/><path id="Fill-17" class="cls-2" d="M1348.7,540.61c14.43-6.38,34.51-6.24,63.12.43,5.31,1.11,10,2.53,14.92,4,0,0,5.23,1.54,5.27,1.54a82.51,82.51,0,0,1,8.31,3l14.53-53.23c-2.4-.69-5.27-1.58-5.25-1.58-40-10.93-76-12.57-106.95-4.83-27.2,6.8-48.94,20.66-62.9,40a68.84,68.84,0,0,0-8.26,15.18c-9,19.36-10.59,36.73-4.85,51.62,6.75,17.44,23.67,31.83,50.3,42.8,0,0,18.71,7.43,18.66,7.43l1.38.5.11.05,5.89,3c17.28,9.4,21.74,15.35,19.23,25.46-2.09,8.77-10.88,19.68-40.66,22-9.31.82-20.49.22-33.28-1.85l-9.61-2.18c-11.33-2.62-29.51-8.05-52-19-11.51,9.18-26.06,16.26-43.51,21-48.59,12.54-78.9,3.85-90-25.82,0,0-.1-.26-.07-.22s-1.17-3.57-1.14-3.53c-10.28-32.23-3.92-63.43,3.22-83.9,7.51-23.08,18.73-37.56,34.23-44.29,13.3-5.69,25.57-5,34.63,1.87s13.75,19,13.75,34.71a88.21,88.21,0,0,1-.67,10.64c-.59,5.53-1.45,10.12-2.3,14.53l-.24,1.18h-48.8c-.45,2.16-7.43,38.19-8,41.29H1227.2a85.42,85.42,0,0,0,7-22.15,250.26,250.26,0,0,0,4.86-46.33c0-28.46-6.86-50.27-20.6-65.07-17.07-18.4-44.2-25.29-80.7-20.54a123.28,123.28,0,0,0-75.91,39.06c-21.31,23.06-35.51,54.14-42.19,92.4-7.7,44.92-1.57,79.1,18.24,101.66s53.08,32.74,98.46,30.12l7.43-.6,2.42-.22c14.81-1.44,25.13-3.87,41.44-8.38,0,0,1-.29,1.07-.31a256,256,0,0,0,26.27-8.48l.58-.22.54.24c8.47,3.63,15.66,6.63,24.61,9.08a187.76,187.76,0,0,0,18.28,4.35l9.4,1.8,1.47.26,5.18.87,4.06.58,4.69.67c70.29,8.93,123-12.64,144.58-59.24,10.09-21.66,12.29-39.46,6.91-54.45-5.41-14.72-18.11-26.47-39-36l-20.7-9.42-5.08-2-10.82-5s-5.86-2.59-5.93-2.64l-7.12-3.85c-5.79-2.9-9.43-6.19-11.09-10a14.76,14.76,0,0,1-2.14-7.63,18.06,18.06,0,0,1,.84-5.29c2-6.44,7.38-12,14.38-15"/><g id="Group-20"><g id="Clip-19"><path id="path-4" class="cls-3" d="M595.07,200.73l35.34-47-64.94-33c-4.3-2-3.75-3.66-4.29-6.51a23.82,23.82,0,0,0-.95-3.53,36.2,36.2,0,0,0-3.7-7.48,41.92,41.92,0,0,0-3.43-4.75c-6.81-8.6-15.14-16-15.94-29.39-.53-9.92,16.3-43.61-3.83-37.33C523.5,34.8,513,52.29,502.83,53.15c-9.83.84-4.7-12.31-2-18.35,3.36-7.61,13.4-21.09,12.13-28.86-1.14-7-8.56-7.73-13.71-2.66-5,4.92-6,8.2-9.25,14.43C480,37.06,464.57,60.32,441,61.28c-16.73.67-20.41-4.82-32.36-11.83-8.21-4.83-16.3-4.85-18.36,5.73-1.82,9.22,7.26,17.1,1.1,25.2-9.51,12.49-21.6,2.21-30.44-1.69-5-2.16-13.84-8.14-19.44,0-3.72,5.45,2,11.37,4.68,14.91,4.43,5.9,9.8,12.55,10.18,19.47.62.55,1.23,1.15,1.86,1.65,6.16,4.82,13.26,6,21.41,5.4,16.33-1.47,33.8-8,46.11,1.69-13.08-3.36-30.24,6.2-47.09,13.56-1.59.24-3.18.41-4.78.54-8.14.66-15.23-.54-21.38-5.38-.36-.29-.71-.62-1.06-.93l0,.05a3.5,3.5,0,0,0-4.68-.52c-.16.12-.32.22-.43.32a1.51,1.51,0,0,0-.2.2l0,0c-9.63,7.11-21.63,8.78-27.43,9.62a60.46,60.46,0,0,0-13.3,3.28c-3.43,1.49-6.16,4.33-7,7.14-1,3.06-2,7,.8,12.11,3.61,6.65,12.13,10.89,17.71,15.66,1.84,1.55,3.92,3.22,5.89,4.94,6.41,5.64,11,11.71-2.33,16.1-8.4,2.78-20.86.5-28.74,3.05-4.25,1.33-8.17,4.14-7.39,9.84.95,6.69,5.56,9.29,9.25,12.93.71.71,1.44,1.38,2.18,2.09h0c11.24,11.1-8.5,14.23-9.86,14.4l-15.86-.38a4.46,4.46,0,0,0,0,8.92l5.17-.07c-1,0,4.89,0,5.55.12,11.64,2,13,8.91,12.94,16.39-.11,7-7.19,15.42-5.69,21.61a5.72,5.72,0,0,0,1.69,2.88c1.81,1.83,4.57,2.71,6.85,4.18,3.63,2.6,1.85,4.94.81,5.92a32.53,32.53,0,0,1-7.81,4.44c-24.85,9-14,26.71-14,26.71l0,0c.79.24,185.8,61.78,178.86,208.16A198.5,198.5,0,0,1,445,581.21c-21.65,55.7-78.63,100.54-140.92,106.33-27,2.55-51.41-5-68.57-21.37s-25.09-39.35-22.28-64.91c2.06-18.68,11.69-37,27.12-51.5s34.82-23.51,54.61-25.39c14-1.27,26.52,2.62,35.37,11s12.91,20.3,11.49,33.46c-2,18.16-19.23,34.33-38.43,36.13s-36.6,18-38.59,36.32,12,31.63,31.35,29.78C354,665.76,405.83,617,411.83,562.38c3.38-30.84-6.17-58.66-26.87-78.33s-50.09-28.82-82.75-25.78C263.74,461.86,226,479.39,196,507.63s-48.76,63.78-52.71,100.17C138.51,651,151.88,690,180.9,717.54s70.19,40.38,116,36.15c113.29-10.57,215-106.21,226.68-213.2a216.05,216.05,0,0,0-.17-48.59c-4.71-39.37-17.9-78.54-44.31-106.63l-8-9.07c23.53,16.12,39,38.1,52.63,63.75,8.23-3.45,23.83-5.69,30.75-12.87,8.73-9.09.71-16.19-2.15-24.91-3.3-10.06-3.88-14.45,6.12-22.72,9.58-8,22.28-12.61,13.08-24.13-5-6.27-15.58-5.12-12.54-16.29,1.85-6.75,11.56-13.85,16.49-18.44C595.28,302.21,565,305.79,563,290c-1.8-14.77,27.48-30.27,9.55-39-18.25-8.91-35.15,7.08-35-19.08.09-21.86-8.92-20.55-28.29-21.95-7.68-.56-17-2.77-20.78-8.34-4.19-6.1-3.85-17.17-17.7-10.6l-1.52.95c0-.34-1.07-1.73-1.07-2.12,48.73-30,83.14,4.47,126.9,10.9ZM354.84,156a28.23,28.23,0,0,0,4,3.47c6.54,4.37,13.94,5.38,22.28,4.41,18.06-2.11,37.12-10.17,51.12,0-13.26-3.05-30.17,6.17-46.92,14-3.19.73-6.36,1.62-9.58,2.07-8.94,1.29-17,.1-23.9-5.12-4.64-3.53-8.32-9-11.81-15.32A47.21,47.21,0,0,0,354.84,156Zm4,45.56a17.81,17.81,0,0,0,3.43,2.37c6.92,3.92,14.59,4.65,23.15,3.4,19.78-2.91,40.45-12.39,56.15-1.66-13.47-2.73-30.12,6.14-46.78,14.51-4.76,1.14-9.57,2.72-14.38,3.52-9.77,1.67-18.71.73-26.41-4.84-4.11-2.93-7.41-7.53-10.59-12.77a56.31,56.31,0,0,0,15.43-4.53Zm-9.11,50.78a65.91,65.91,0,0,0,16-5.48,16.4,16.4,0,0,0,2.86,1.22c7.3,3.47,15.27,3.92,24,2.42,21.5-3.73,43.76-14.61,61.17-3.34-13.67-2.41-30,6.13-46.62,15-6.34,1.61-12.76,3.83-19.19,5-10.64,2-20.38,1.3-28.92-4.55-3.51-2.42-6.48-6.08-9.35-10.27Zm148.1,77.84c-14.08-1.74-29.92,6.1-46.33,15.89-9.49,2.57-19.16,5.91-28.78,8-12.35,2.6-23.55,2.18-33.95-4a49.11,49.11,0,0,1-6.87-5.16,93.33,93.33,0,0,0,17.24-7.48c.57-.31,1.12-.66,1.69-1,8.07,2.51,16.59,2.31,25.8.4,24.85-5.62,50.41-19.06,71.2-6.69Zm-26-41.72c-13.87-2.08-30,6.11-46.48,15.42-7.92,2.1-16,4.88-24,6.54-11.51,2.35-22,1.84-31.43-4.27a38.79,38.79,0,0,1-8.13-7.69,79.79,79.79,0,0,0,16.64-6.52c.76.08,1.5.15,2.28.16,7.67,3,15.95,3.12,24.9,1.34,23.2-4.54,47.08-16.81,66.2-5Z"/></g></g></g><g id="Waterbedrijf"><path id="Fill-1" class="cls-2" d="M907.81,869.93l3.69,66a63.06,63.06,0,0,1-.43,11.52l.62-2.56,1.09-3.27c.83-2.75,1.51-4.57,2.11-6l28-63.65H961.4l5.36,63.47a54.36,54.36,0,0,1,0,6.22l-.19,3.07-.24,2.38a63.52,63.52,0,0,1,4-11.85l26.5-63.29h16.63l-39.8,91.38H954.34l-5.5-62.58c-.11-1.44-.16-3.09-.16-7.1.05-2.36.16-4.92.43-7.49l-.76,2.36-1.27,4.22c-1.62,5.3-2,6.57-2.53,7.48l-27.5,63.11H897.43l-7.33-91.2Zm166.79,49.2-4.5,25.76c-1,.54-1.8,1.28-2.77,1.84-6.37,4.22-12.53,6.24-17.59,6.06-13,0-18.4-10.46-12.45-22.43,4.57-9,15.16-14.32,32-11.94l3.1.36Zm1.76-10.1-2-.36-2-.56c-1.37-.18-2.52-.54-3.73-.72-26.1-4.6-43.38,5.68-49.74,24.07-6.72,19.31,2.16,34,20.08,35.11a32.8,32.8,0,0,0,5.84-.17c7.15-.75,13.57-3.33,21.61-9a17.6,17.6,0,0,0,2.19-1.48l-.94,8.47h15.63L1094.81,898c3.65-21-4.45-30-32.79-27.75a99.55,99.55,0,0,0-17.43,3.12l-4.62,1.28-3.5.92,1.85,13.6,3-1.1,3.55-1.12a83.09,83.09,0,0,1,12.82-2.92c17.54-1.84,22.44,3.3,20.23,16Zm47.12-37.55h10.9l2.68-15.43,17-2.8-3.16,18.23h17.44l-2,11.68-17.55,1.68-9.6,55.76c-1.84,10.61,0,13.55,8.21,12.65.53,0,1.08-.21,1.61-.21l1.3-.36,1.68-.57,1.47-.36,1.32-.54L1152.56,964l-1.49.57-1.13.36c-1.64.36-3.47.75-5.47,1.11-19.5,2.8-25.69-4.08-22.92-20.24l10.62-61.52-10.71-1.12ZM1197,912.2c.19-1.1.55-2.2.72-3.13,3.8-15.83,11.72-23.93,21.16-25.59,13.44-2.39,21.05,6.63,18.4,25.77-.17.93-.31,1.85-.51,3ZM1250.9,924c.6-2.38,1.23-5,1.66-7.54,5.34-33.72-7.9-49.55-33.69-46-19.83,2.74-35.37,19.14-40,47.71-6.17,38.49,15.41,57.09,58,44.74l2.26-.72,2.41-.74-.87-13.27-1.87.74-2.46.92c-26.13,8.46-40.65-1.1-40.41-21.75a27.44,27.44,0,0,1,.37-4Zm37.48-52.22,16.51-.74-1.25,7.33a13.77,13.77,0,0,1,1.77-1.3c6.48-4.58,11.64-6.6,18.46-7.13h2.59l-4.58,16.66c-.84-.18-1.53-.18-2.19-.38a26.07,26.07,0,0,0-16.67,3.66,5,5,0,0,0-1.53.92l-12.43,72.52H1272.7ZM1353,944l9-51.54a29.48,29.48,0,0,1,4-2.57c16.13-9.21,29.08-3.5,30.56,12.32a57.13,57.13,0,0,1-.17,10.14A73.82,73.82,0,0,1,1393,928.2c-6.17,20-20.53,27.42-35.8,18.77A19.63,19.63,0,0,1,1353,944Zm-20.19,20.43h14.84l2.37-7.55a26.44,26.44,0,0,0,4.35,3.5,20.23,20.23,0,0,0,3.46,2.39c17.93,10.67,42.1-1.29,52-30.37,4.69-13.62,6-27.42,4.78-37.36-3.55-24.3-25.23-32.59-47.79-17.84a10.19,10.19,0,0,0-2.24,1.63l8.58-49-17.19,2.2Zm123.49-52.26c.19-1.1.57-2.2.72-3.13,3.8-15.83,11.75-23.93,21.18-25.59,13.44-2.39,21,6.63,18.37,25.77-.15.93-.31,1.85-.51,3ZM1510.19,924c.58-2.38,1.2-5,1.66-7.54,5.34-33.72-7.92-49.55-33.7-46-19.84,2.74-35.36,19.14-40,47.71-6.17,38.49,15.43,57.09,58,44.74l2.22-.72,2.43-.74-.87-13.27-1.88.74-2.45.92c-26.1,8.46-40.61-1.1-40.37-21.75a31.88,31.88,0,0,1,.34-4Zm86.31-31.56-9,52a39.9,39.9,0,0,1-4.86,2.93c-17.25,9.05-29.56,1.48-29.2-17.89a70,70,0,0,1,4.1-22.68c6.3-19.36,21.54-26.93,35.28-17.52C1594.26,890.4,1595.45,891.53,1596.5,892.43Zm2.43-14c-.62-.56-1-1.1-1.62-1.64-16.25-14-40.68-5.93-52.75,17.5a83.73,83.73,0,0,0-6,15.85,86.33,86.33,0,0,0-3.37,24.53c.39,27.12,21.17,39.1,41.63,27.68,1.72-.92,3.29-1.84,4.85-2.77l2.95-2,1.56-.93-1.34,7.75h15.72l23.16-134.46L1607,831.76Zm53.1-6.65,16.5-.74-1.25,7.33a12.5,12.5,0,0,1,1.77-1.3c6.46-4.58,11.64-6.6,18.43-7.13h2.61l-4.59,16.66c-.85-.18-1.51-.18-2.19-.38a26,26,0,0,0-16.64,3.66,4.73,4.73,0,0,0-1.53.92l-12.42,72.52h-16.38Zm57.91-.65,17.58-2.2-17.06,94.39h-17.2Zm10.32-39.83c10.75-3.88,15.43.74,13.78,9.77-1.6,8.85-7.57,13.47-17.29,9.59-2.73-1.1-3.73-3.69-2.65-9.59S1716.9,832.57,1720.26,831.29Zm13.26,160.4c6.46-6.61,8.8-12,11.44-26.89l16.43-94.16,17.17-2-16.78,96c-3.36,19.15-6.48,24.87-18.18,33.18-1,.71-2.22,1.46-3.24,2.2l-9.16-6.07C1732,993.18,1732.67,992.44,1733.52,991.69ZM1777,829.91c6.68.18,8.8,3.13,7.64,10.87-1.52,8.66-7.27,13.28-16.34,9.58-2.78-1.28-3.94-3.87-2.9-9.76C1766.71,833,1770.1,829.91,1777,829.91Zm22.55,41.47h10.67l2.58-14.88c3.52-20.2,15.6-29.36,39.63-25.86.67.18,1.56.18,2.23.36l1.48.35,1.53.38-5.38,12.85-1-.36-1.34-.38-1.87-.36-1.53-.18c-.52,0-1-.18-1.55-.18-9.4-.2-13.94,3.83-15.93,15.22l-2.27,13h20.64l-2,11.75-20.91,1.45-13.66,78.73h-16.43l13.7-78.91-10.66-.92Z"/></g></g></g></g></svg>