<svg id="Layer_1" data-name="Layer 1" xmlns="http://www.w3.org/2000/svg" viewBox="0 0 2000 1000"><defs><style>.cls-1{fill:#2bace2;}.cls-2{fill:#010101;}</style></defs><g id="layer1"><g id="g3165"><g id="g3315"><path id="path3317" class="cls-1" d="M580.92,815c50.23,0,77.53-33.35,77.53-80.15V496.12H765.29v244c-1,107.44-87.11,149.61-184.37,149.61S397.6,847.6,396.53,740.16v-244H503.39V734.84c0,46.8,27.29,80.15,77.53,80.15"/></g><g id="g3319"><path id="path3321" class="cls-2" d="M1288.88,722.06c.36-41.83,25.68-79.63,67.93-79.63,49.15,0,68.36,33.69,68.36,79.63Zm189.77,35.27V732.2c0-74.27-42.05-126.66-118.13-126.66-85,0-124.52,65.74-124.52,144.29,0,79.11,34.23,140,120.27,140,64.12,0,111.15-30.41,119.17-91.35H1422c-5.9,39-25.66,54.48-65.21,54.48-51.87,0-69.08-46.12-69.08-95.63Z"/></g><path id="path3323" class="cls-2" d="M1591,496.13h-50.79V881.86H1591Z"/><g id="g3325"><path id="path3327" class="cls-2" d="M119.7,881.83H226.56V571h119.7V496.14H0V571H119.7Z"/></g><g id="g3329"><path id="path3331" class="cls-2" d="M376.37,308.33c-26,8.18-52.93,1.63-52.87-33.24C323.54,222,448.34,177.4,465.63,131c4.3-11.57,4.56-21.11-1-20.81-4,.22-.87,6-9.6,14.76-51.71,51.7-138.31,51.62-204.77,81.4C206.7,225.9,79,286,108.37,420.07c1.41,6.35,5.2,27.69,9.11,27.69,4.52,0,4.48-12.68,4.35-28.08-1-79.82,93.56-102.08,124.32-154.23,3.67-6.25,10-15,11.55-10.92.73,2,.26,4.85-1,10.4-9.63,42.85-54.44,70.37-41.74,101,16.44,39.77,64,10.12,78.55-15.44,3.91-7,6.11-11.53,8.73-10.62,2,.68,1.9,8.76.67,16-7.81,46.12-18.41,72-52.17,98.27C240,462.56,223,464.31,225.21,470.76c.56,1.68,7.88,1.5,13.7.91,89.89-5.74,165.08-111.74,185-181,2.07-4.88,2.72-9.45.5-11.17-2.7-2.09-6.65,2.72-10.66,6.27-10.28,9-24.38,18.43-37.38,22.52"/></g><g id="g3333"><path id="path3335" class="cls-2" d="M1750.16,881.83V649h61.92V613.67h-61.92v-43.3c0-31,14.92-36.33,43.82-36.33,8.51,0,17.08,1.11,25.62,1.57V493.46c-11.89-2.7-24-5.34-36.34-5.34-48.06,0-83.9,24.09-83.9,75.43v50.12h-52.31V649h52.31V881.83Z"/></g><g id="g3337"><path id="path3339" class="cls-2" d="M1841.27,613.67V649h46v170.9c0,35.69.51,70,75.92,70a195.51,195.51,0,0,0,34.69-3.18v-39a123.43,123.43,0,0,1-26.71,3.23c-18.18,0-33.1-9.13-33.1-28.32V649h62V613.67h-62v-73.2l-50.8,16v57.21Z"/></g><g id="g3341"><path id="path3343" class="cls-2" d="M872.15,881.83h132.5c165,0,182.29-139.61,182.29-192.83s-17.32-192.88-182.29-192.88H872.15ZM925.67,542h79c89.16,0,126.15,67.27,126.15,147s-37,146.91-126.15,146.91h-79Z"/></g></g></g></svg>