<?xml version="1.0" encoding="utf-8"?>
<!-- Generator: Adobe Illustrator 25.3.1, SVG Export Plug-In . SVG Version: 6.00 Build 0)  -->
<svg version="1.1" id="Layer_1" xmlns="http://www.w3.org/2000/svg" xmlns:xlink="http://www.w3.org/1999/xlink" x="0px" y="0px"
	 viewBox="0 0 2000 1000" style="enable-background:new 0 0 2000 1000;" xml:space="preserve">
<style type="text/css">
	.st0{fill-rule:evenodd;clip-rule:evenodd;fill:#010101;}
	.st1{fill-rule:evenodd;clip-rule:evenodd;fill:#116A56;}
	.st2{fill-rule:evenodd;clip-rule:evenodd;fill:#CF4138;}
	.st3{fill-rule:evenodd;clip-rule:evenodd;fill:#FFFFFF;}
</style>
<path class="st0" d="M683.8,793.5c0-31.1,11.3-68.3,48.4-68.3s48.8,37.2,48.8,68.3s-11.7,67.8-48.8,67.8S683.8,824.6,683.8,793.5
	L683.8,793.5z M603.8,793.5c0,73.5,52.8,129,128.5,129s128.9-55.6,128.9-129S807.9,664,732.2,664S603.8,720.1,603.8,793.5z
	 M1041.4,725.3c35.3,0,47.5,34.4,47.5,65.5c0,33.4-12.2,70.6-48,70.6c-36.2,0-48.5-27.8-48.5-70.6
	C992.5,740.4,1019.7,725.3,1041.4,725.3L1041.4,725.3z M915.2,997.4h80.1V889.1h0.9c16.5,22.1,39.5,33.4,69.6,33.4
	c69.2,0,103.2-60.3,103.2-123.8c0-68.7-32.5-134.7-109.3-134.7c-28.2,0-51.8,12.2-67.3,35.3h-0.9v-28.2h-76.3V997.4z M1297.1,845.2
	c0-19.4,15.1-26.9,33-31.2c17.5-4.7,38.2-6.1,49.5-13.2c1.9,50.6-10.8,72.4-49,72.4C1312.6,873.1,1297.1,865.1,1297.1,845.2
	L1297.1,845.2z M1301.7,745.9c3.8-20.3,17.9-30,40-30c16.5,0,38.6,6.9,38.6,24.9c0,15-7.5,19.8-21.2,22.6
	c-55.6,11.3-142.3,5.2-142.3,85.1c0,50.5,36.7,74.1,83.4,74.1c29.2,0,59.8-8.5,80.6-30.2c0.9,8,1.9,15.6,4.7,23.1h80.5
	c-9.4-19.3-9.4-41.9-9.4-62.7V745.4c0-68.7-56-81.4-113.9-81.4c-27.8,0-56.1,4.7-77.7,17c-21.7,12.7-36.7,33.5-38.2,64.9
	L1301.7,745.9z M1528.4,579.2h80.1v173.4l73-81.5h92.8l-89.5,92.3l100.8,152H1689l-59.8-98.3l-20.7,20.2v78.1h-80.1L1528.4,579.2
	L1528.4,579.2z M543.4,579.2L425.1,829.3h-1L305.8,579.2h-91.4l161.2,336.3h98l161.2-336.3H543.4z"/>
<path class="st1" d="M1088.8,404.3L1282.7,0.1h-673L415.9,404.3H1088.8z"/>
<path class="st2" d="M1390.2,579.5l193.9-404.1H868L674,579.5H1390.2z"/>
<path class="st3" d="M1282.9,175.4l27.1,138.7l-301.3,0.1l104.8-138.8H1282.9z M1319.9,371l170.3,0.2l-15.8,32.8l-716.2,0.2l15.8-33
	l189.8-0.1l27.9-35.1h321L1319.9,371z"/>
</svg>
